<svg xmlns="http://www.w3.org/2000/svg" width="48" height="48" viewBox="0 0 48 48" fill="none">
  <path d="M24 12.8c-6.09 0-11.05 4.67-11.05 10.43 0 2.28.78 4.42 2.21 6.18l-1.33 5.82 6.12-1.24c1.32.68 2.79 1.04 4.05 1.04 6.09 0 11.05-4.67 11.05-10.43S30.09 12.8 24 12.8Z" stroke="#FFFFFF" stroke-width="2" stroke-linejoin="round"/>
  <path d="M20.75 19.7c.31-.31.74-.31 1.05 0l1.5 1.5c.3.29.3.77 0 1.06l-.94.94a8 8 0 0 0 2.53 2.54l.94-.95c.3-.29.77-.29 1.06 0l1.5 1.5c.3.3.3.74 0 1.05l-1 1c-.47.47-1.18.64-1.8.41a11.42 11.42 0 0 1-6.95-6.95c-.23-.62-.06-1.33.41-1.8l1-1Z" fill="#FFFFFF"/>
</svg>
