<svg width="180" height="72" viewBox="0 0 180 72" fill="none" xmlns="http://www.w3.org/2000/svg">
<path d="M80.2542 49.886V34.5289C80.2542 32.1853 78.8377 30.7668 76.1484 30.7668C74.7729 30.7668 73.418 31.034 72.6584 31.3218V49.886H66.7871V27.7447C69.2506 26.7579 72.2273 26.0589 76.0663 26.0589C82.9846 26.0589 86.1666 28.9165 86.1666 33.9327V49.886H80.2542Z" fill="#939393"/>
<path d="M126.014 50.4C118.5 50.4 114.395 45.9388 114.395 38.3734C114.395 31.1985 118.151 26.3467 125.275 26.3467C126.527 26.3467 127.862 26.5728 128.601 26.8195V18H134.513V48.7142C132.85 49.6393 129.566 50.4 126.014 50.4ZM128.621 31.2396C128.149 31.0135 126.938 30.8079 125.891 30.8079C122.216 30.8079 120.266 33.8711 120.266 38.2911C120.266 42.999 122.257 45.7744 125.891 45.7744C126.938 45.7744 128.128 45.5482 128.621 45.3015V31.2396Z" fill="#939393"/>
<path d="M150.238 50.4C143.114 50.4 138.701 45.1576 138.701 38.2089C138.701 31.2396 143.135 26.0589 150.238 26.0589C157.362 26.0589 161.775 31.2602 161.775 38.2089C161.775 45.1782 157.362 50.4 150.238 50.4ZM150.238 30.6845C146.604 30.6845 144.305 33.501 144.305 38.1678C144.305 42.8345 146.604 45.6099 150.238 45.6099C153.872 45.6099 156.171 42.8345 156.171 38.1678C156.171 33.501 153.872 30.6845 150.238 30.6845Z" fill="#939393"/>
<path d="M110.699 37.8388C106.265 38.4761 100.701 39.3602 96.0821 41.5393C96.5543 44.2736 99.0588 45.8977 102.467 45.8977C104.807 45.8977 107.353 45.1576 108.995 44.2942L110.678 48.7142C108.728 49.701 105.443 50.4 102.077 50.4C94.3782 50.4 90.334 45.3838 90.334 38.2089C90.334 31.0751 94.3577 26.0589 101.132 26.0589C107.743 26.0589 111.15 30.7873 111.15 37.1398C111.15 37.4482 111.13 37.7977 110.699 37.8388ZM101.009 30.6845C97.9092 31.034 95.7331 33.7477 95.6921 37.4482C98.6893 36.2558 102.487 35.1662 106.388 34.7551C106.203 32.432 104.15 30.335 101.009 30.6845Z" fill="#939393"/>
<path d="M62.1681 37.8388C57.7338 38.4761 52.1704 39.3602 47.5514 41.5393C48.0235 44.2736 50.5281 45.8977 53.9359 45.8977C56.2762 45.8977 58.8218 45.1576 60.4642 44.2942L62.1476 48.7142C60.1973 49.701 56.9126 50.4 53.5459 50.4C45.8475 50.4 41.8032 45.3838 41.8032 38.2089C41.8032 31.0751 45.8269 26.0589 52.6015 26.0589C59.2119 26.0589 62.6197 30.7873 62.6197 37.1398C62.6197 37.4482 62.5992 37.7977 62.1681 37.8388ZM52.4578 30.6845C49.3579 31.034 47.1818 33.7477 47.1408 37.4482C50.138 36.2558 53.9359 35.1662 57.8365 34.7551C57.6517 32.432 55.6193 30.335 52.4578 30.6845Z" fill="#939393"/>
<path d="M25.7291 50.4C22.1776 50.4 18.2565 50.0916 16.2241 50.585V20.5698C18.7697 19.3157 22.0544 18.0411 25.647 18.0411C33.5917 18.0411 37.3075 21.6388 37.3075 26.614C37.3075 30.2117 34.9261 32.5348 32.4216 33.2338V33.316C34.9261 34.1383 38.1287 36.8931 38.1287 41.3543C38.1287 46.9873 33.8997 50.4 25.7291 50.4ZM26.5913 22.6873C25.2159 22.6873 23.1835 23.0162 22.0133 23.6124V33.0282C22.7934 32.6581 25.1132 32.1853 26.9403 31.8563C30.7382 31.1574 31.4978 28.752 31.4978 27.2101C31.5183 24.3731 30.1429 22.6873 26.5913 22.6873ZM28.7058 36.153C25.5238 35.6391 22.0133 37.7155 22.0133 37.7155V45.2604C22.8755 45.5688 24.3947 45.7744 25.688 45.7744C29.9581 45.7744 32.1342 43.9241 32.1342 40.6759C32.1136 38.949 31.3951 36.5848 28.7058 36.153Z" fill="#939393"/>
<path d="M163.048 30.4378C161.919 30.4378 161.016 29.5332 161.016 28.4025C161.016 27.2718 161.94 26.3672 163.048 26.3672C164.157 26.3672 165.081 27.2718 165.081 28.4025C165.081 29.5127 164.178 30.4378 163.048 30.4378ZM163.048 26.6962C162.104 26.6962 161.365 27.4774 161.365 28.4025C161.365 29.3277 162.104 30.0883 163.048 30.0883C163.993 30.0883 164.732 29.3277 164.732 28.4025C164.732 27.4568 163.993 26.6962 163.048 26.6962ZM163.459 29.5332L162.782 28.5259H162.72V29.5332H162.351V27.2718C162.515 27.1896 162.72 27.1485 162.946 27.1485C163.5 27.1485 163.788 27.4568 163.788 27.8269C163.788 28.1969 163.541 28.4231 163.192 28.4848L163.931 29.5332H163.459ZM162.925 27.4568C162.843 27.4568 162.782 27.4774 162.72 27.4774V28.2586H162.864C163.192 28.2586 163.397 28.1558 163.397 27.8269C163.418 27.5185 163.151 27.4568 162.925 27.4568Z" fill="#939393"/>
</svg>
